<svg viewBox="0 0 900 600" width="900" height="600" xmlns="http://www.w3.org/2000/svg" preserveAspectRatio="none"><g transform="translate(900, 0)"><path d="M0 351.5C-49.3 344.7 -98.6 337.8 -128.2 309.5C-157.8 281.2 -167.7 231.3 -202.2 202.2C-236.7 173.1 -295.8 164.8 -324.8 134.5C-353.8 104.3 -352.7 52.1 -351.5 0L0 0Z" fill="#F9F9F9" fill-opacity="0.5"></path><path d="M0 175.8C-24.6 172.3 -49.3 168.9 -64.1 154.7C-78.9 140.6 -83.9 115.7 -101.1 101.1C-118.4 86.6 -147.9 82.4 -162.4 67.3C-176.9 52.1 -176.3 26.1 -175.8 0L0 0Z" fill="#F9F9F9"></path></g><g transform="translate(0, 600)"><path d="M0 -351.5C49.7 -351.2 99.3 -350.9 134.5 -324.8C169.8 -298.7 190.6 -246.8 207.2 -207.2C223.8 -167.5 236.2 -140 259.6 -107.5C283 -75 317.3 -37.5 351.5 0L0 0Z" fill="#F9F9F9" fill-opacity="0.5"></path><path d="M0 -175.8C24.8 -175.6 49.7 -175.4 67.3 -162.4C84.9 -149.3 95.3 -123.4 103.6 -103.6C111.9 -83.8 118.1 -70 129.8 -53.8C141.5 -37.5 158.6 -18.8 175.8 0L0 0Z" fill="#F9F9F9"></path></g></svg>