<svg viewBox="0 0 150 100" width="150" height="100" xmlns="http://www.w3.org/2000/svg" preserveAspectRatio="none"><rect x="0" y="0" width="150" height="100" fill="#FFFFFF"></rect><path d="M0 71L6.3 66C12.7 61 25.3 51 37.8 45.2C50.3 39.3 62.7 37.7 75.2 45.3C87.7 53 100.3 70 112.8 78.5C125.3 87 137.7 87 143.8 87L150 87L150 101L143.8 101C137.7 101 125.3 101 112.8 101C100.3 101 87.7 101 75.2 101C62.7 101 50.3 101 37.8 101C25.3 101 12.7 101 6.3 101L0 101Z" fill="#F9F9F9" fill-opacity="0.5"></path><path d="M0 80L6.3 72C12.7 64 25.3 48 37.8 47C50.3 46 62.7 60 75.2 71.2C87.7 82.3 100.3 90.7 112.8 93.5C125.3 96.3 137.7 93.7 143.8 92.3L150 91L150 101L143.8 101C137.7 101 125.3 101 112.8 101C100.3 101 87.7 101 75.2 101C62.7 101 50.3 101 37.8 101C25.3 101 12.7 101 6.3 101L0 101Z" fill="#F9F9F9"></path></svg>