<svg fill="#000000" xmlns="http://www.w3.org/2000/svg"  viewBox="0 0 24 24" width="24px" height="24px"><path d="M 21.980469 1.9902344 A 1.0001 1.0001 0 0 0 21.292969 2.2929688 L 20.292969 3.2929688 A 1.0001 1.0001 0 0 0 20.001953 4 L 20.001953 5.5 L 18.501953 5.5 A 1.0001 1.0001 0 0 0 17.501953 6.5 L 17.501953 8 L 16.001953 8 A 1.0001 1.0001 0 0 0 15.292969 8.2929688 L 13.292969 10.292969 A 1.0005836 1.0005836 0 1 0 14.708984 11.707031 L 16.416016 10 L 18.501953 10 A 1.0001 1.0001 0 0 0 19.501953 9 L 19.501953 7.5 L 21.001953 7.5 A 1.0001 1.0001 0 0 0 22.001953 6.5 L 22.001953 4.4140625 L 22.708984 3.7070312 A 1.0001 1.0001 0 0 0 21.980469 1.9902344 z M 8.0019531 2 A 1.0001 1.0001 0 1 0 8.0019531 4 L 8.0117188 4 C 8.5392758 4 9.0439968 4.2094242 9.4179688 4.5820312 C 9.7906696 4.9547321 10.001953 5.4600985 10.001953 5.9882812 L 10.001953 8 A 1.0001 1.0001 0 1 0 12.001953 8 L 12.001953 5.9882812 C 12.001953 4.9304641 11.581283 3.9152679 10.833984 3.1679688 A 1.0001 1.0001 0 0 0 10.832031 3.1679688 C 10.084179 2.4214068 9.0695358 2 8.0117188 2 L 8.0019531 2 z M 15.001953 2 A 1 1 0 0 0 15.001953 4 A 1 1 0 0 0 15.001953 2 z M 5.0019531 5 A 1 1 0 0 0 5.0019531 7 A 1 1 0 0 0 5.0019531 5 z M 7.9902344 8.9902344 A 1.0001 1.0001 0 0 0 7.2929688 10.707031 L 7.5859375 11 L 3.0019531 22 L 14.001953 17.416016 L 14.292969 17.707031 A 1.0005836 1.0005836 0 1 0 15.708984 16.292969 L 8.7089844 9.2929688 A 1.0001 1.0001 0 0 0 7.9902344 8.9902344 z M 3.0019531 9 A 1 1 0 0 0 3.0019531 11 A 1 1 0 0 0 3.0019531 9 z M 22.001953 9 A 1 1 0 0 0 22.001953 11 A 1 1 0 0 0 22.001953 9 z M 8.8769531 12.291016 L 12.710938 16.125 L 6.0039062 19 L 8.8769531 12.291016 z M 16.001953 13 A 1.0001 1.0001 0 1 0 16.001953 15 L 17.976562 15 C 18.513392 15 19.028684 15.214231 19.408203 15.59375 C 19.787722 15.973269 20.001953 16.488561 20.001953 17.025391 L 20.001953 18 A 1.0001 1.0001 0 1 0 22.001953 18 L 22.001953 17.025391 C 22.001953 15.95822 21.576747 14.934168 20.822266 14.179688 C 20.067785 13.425207 19.043733 13 17.976562 13 L 16.001953 13 z M 18.001953 20 A 1 1 0 0 0 18.001953 22 A 1 1 0 0 0 18.001953 20 z"/></svg>