<svg fill="#000000" xmlns="http://www.w3.org/2000/svg" viewBox="0 0 24 24" width="24px" height="24px"><path d="M 13.642578 1.0664062 L 7.0644531 3.5898438 L 4.1015625 7.2773438 C 3.3887262 8.1646868 3 9.2705117 3 10.408203 L 3 14 C 3 15.298955 3.8502024 16.405428 5.015625 16.818359 C 4.9676447 18.643277 5.7401634 20.469095 7.2753906 21.681641 C 9.8592066 23.722377 13.638371 23.276544 15.679688 20.693359 C 16.819879 19.250473 17.192148 17.431579 16.841797 15.757812 L 16.804688 15.765625 L 19.878906 13.603516 L 19.970703 13.242188 C 19.970742 13.242148 21 9.2222222 21 6 L 19 6 C 19 8.5701371 18.225727 11.884498 18.101562 12.408203 L 13.388672 15.724609 L 13.326172 15.667969 C 12.884139 15.222428 12.883795 14.53022 13.328125 14.085938 L 15.861328 11.626953 L 15.861328 11.203125 C 15.861328 7.9780371 12.227508 5.9337778 9.4765625 7.6210938 C 8.5455808 8.1927202 7.9494575 8.947966 7.2929688 9.6035156 L 7 9.8964844 L 7 12.533203 C 6.7478665 12.759116 6.5056724 13.001018 6.2890625 13.275391 C 5.9156074 13.748229 5.6271918 14.261896 5.4179688 14.796875 C 5.1695349 14.617482 5 14.3399 5 14 L 5 10.408203 C 5 9.724792 5.2340202 9.0615969 5.6621094 8.5292969 L 8.2851562 5.2636719 L 14.357422 2.9335938 L 13.642578 1.0664062 z M 11.585938 8.9902344 C 12.640209 8.9442763 13.595103 9.7176654 13.771484 10.867188 L 13.183594 11.439453 C 12.755906 11.26993 12.319287 11.132617 11.873047 11.066406 C 10.906208 10.922953 9.9196783 11.026949 9 11.349609 L 9 10.746094 C 9.568336 10.162479 10.061301 9.6099397 10.523438 9.3261719 C 10.871664 9.1125839 11.234514 9.0055537 11.585938 8.9902344 z M 10.892578 12.998047 C 11.13118 12.992631 11.370166 13.011206 11.607422 13.048828 C 10.724972 14.26583 10.820379 15.992254 11.914062 17.085938 L 11.933594 17.105469 L 13.236328 18.275391 L 14.964844 17.058594 C 14.950638 17.898006 14.676 18.738572 14.111328 19.453125 L 14.111328 19.455078 C 12.740418 21.190814 10.251403 21.482271 8.515625 20.111328 C 6.7798888 18.740418 6.4864789 16.251403 7.8574219 14.515625 L 7.8574219 14.513672 C 8.6257779 13.540421 9.7495333 13.023992 10.892578 12.998047 z"/></svg>