<svg fill="#000000" xmlns="http://www.w3.org/2000/svg" viewBox="0 0 24 24" width="24px" height="24px"><path d="M 2 4 L 2 18 C 2 19.105 2.895 20 4 20 L 10.277344 20 C 10.623613 20.595634 11.261054 21 12 21 C 12.738946 21 13.376387 20.595634 13.722656 20 L 20 20 C 21.105 20 22 19.105 22 18 L 22 4 L 14 4 C 13.228 4 12.532 4.3002969 12 4.7792969 C 11.468 4.3002969 10.772 4 10 4 L 2 4 z M 4 6 L 10 6 C 10.551 6 11 6.449 11 7 L 11 18 L 4 18 L 4 6 z M 14 6 L 20 6 L 20 18 L 13 18 L 13 7 C 13 6.449 13.449 6 14 6 z"/></svg>