<svg fill="#000000" xmlns="http://www.w3.org/2000/svg" viewBox="0 0 24 24" width="24px" height="24px"><path d="M 14.398438 2.0234375 L 6.46875 9.953125 L 2.9667969 21.033203 L 14.048828 17.53125 L 21.976562 9.6015625 L 20.5625 8.1875 L 14.005859 14.746094 C 13.875781 14.564665 13.73509 14.387434 13.568359 14.220703 C 12.780463 13.432806 11.851336 13.122907 11.037109 12.933594 C 10.859447 12.128653 10.560925 11.212363 9.78125 10.431641 L 9.7792969 10.431641 C 9.6132347 10.265579 9.4363702 10.123693 9.2558594 9.9941406 L 15.8125 3.4375 L 14.398438 2.0234375 z M 8.0429688 11.605469 C 8.1555346 11.682789 8.2750574 11.755526 8.3652344 11.845703 C 8.8564239 12.337553 9.1304374 13.223235 9.2246094 13.886719 L 9.328125 14.617188 L 10.056641 14.734375 C 10.739125 14.844509 11.662956 15.143425 12.154297 15.634766 C 12.245374 15.725843 12.322179 15.841746 12.400391 15.955078 L 7.5253906 17.494141 L 6.5058594 16.474609 L 8.0429688 11.605469 z"/></svg>