<?xml version="1.0" standalone="no"?><svg xmlns="http://www.w3.org/2000/svg" viewBox="0 0 1440 320"><path fill="#F9F9F9" fill-opacity="1" d="M0,224L40,192C80,160,160,96,240,96C320,96,400,160,480,181.3C560,203,640,181,720,181.3C800,181,880,203,960,224C1040,245,1120,267,1200,277.3C1280,288,1360,288,1400,288L1440,288L1440,320L1400,320C1360,320,1280,320,1200,320C1120,320,1040,320,960,320C880,320,800,320,720,320C640,320,560,320,480,320C400,320,320,320,240,320C160,320,80,320,40,320L0,320Z"></path></svg>